<svg width="441" height="441" fill="none" xmlns="http://www.w3.org/2000/svg"><g clip-path="url(#a)"><path d="m287.49 260.467 16.172 27.926 50.887-127.54c-5.152-8.613-10.668-18.785-15.82-27.402l-135.9-19.703 16.355 28.156 110.72 14.742-42.414 103.821Zm-134.34-80.848-16.176-27.926-50.887 127.54c5.152 8.613 10.668 18.785 15.82 27.402l135.9 19.699-16.355-28.156-110.72-14.746 42.418-103.813Zm257.57-69.539c60.773 105.27 24.707 239.87-80.559 300.64-105.27 60.773-239.87 24.707-300.64-80.559-60.773-105.27-24.707-239.87 80.559-300.64C215.35-31.252 349.95 4.814 410.72 110.08Z" fill="#000"/></g><defs><clipPath id="a"><path fill="#fff" d="M0 0h440.242v440.242H0z"/></clipPath></defs></svg>